<svg xmlns="http://www.w3.org/2000/svg" xmlns:xlink="http://www.w3.org/1999/xlink" preserveAspectRatio="xMidYMid" width="167" height="60" viewBox="0 0 167 60"><defs><style>.cls-1 {fill: #101820;fill-rule: evenodd;}</style></defs><path d="M166.634,17.121 L166.634,15.600 L166.032,17.121 L165.911,17.121 L165.297,15.600 L165.297,17.121 L164.958,17.121 L164.958,15.105 L165.461,15.105 L165.993,16.481 L166.513,15.105 L167.010,15.105 L167.010,17.121 L166.634,17.121 ZM163.953,17.121 L163.574,17.121 L163.574,15.402 L163.012,15.402 L163.012,15.105 L164.515,15.105 L164.515,15.402 L163.953,15.402 L163.953,17.121 ZM146.360,48.557 C136.869,48.557 129.842,41.977 129.842,32.200 L129.842,31.708 C129.842,21.745 136.930,15.105 146.422,15.105 C155.851,15.105 162.938,21.686 162.938,31.524 L162.938,32.016 C162.938,42.037 155.851,48.557 146.360,48.557 ZM155.296,31.646 C155.296,25.006 151.968,20.947 146.422,20.947 C140.874,20.947 137.485,24.945 137.485,31.587 L137.485,32.078 C137.485,38.656 140.751,42.776 146.422,42.776 C151.968,42.776 155.296,38.656 155.296,32.078 L155.296,31.646 ZM116.469,31.646 C116.469,25.006 113.141,20.947 107.594,20.947 C102.047,20.947 98.658,24.945 98.658,31.587 L98.658,48.557 L91.015,48.557 L91.015,31.708 C91.015,21.745 98.103,15.105 107.594,15.105 C117.023,15.105 124.111,21.686 124.111,31.524 L124.111,48.557 L116.469,48.557 L116.469,31.646 ZM77.630,44.548 C75.661,46.918 73.018,48.449 68.705,48.546 L68.384,48.546 C59.057,48.399 52.188,41.866 52.188,32.200 L52.188,31.708 C52.188,21.745 59.276,15.105 68.767,15.105 C78.196,15.105 85.284,21.686 85.284,31.524 L85.284,48.557 L77.630,48.557 L77.630,44.548 ZM68.767,20.947 C63.220,20.947 59.830,24.945 59.830,31.587 L59.830,32.078 C59.830,38.656 63.096,42.776 68.765,42.776 L70.042,42.776 C73.791,42.776 76.738,41.136 77.630,38.243 L77.642,31.646 C77.642,25.006 74.313,20.947 68.767,20.947 ZM42.627,9.387 C39.963,9.387 37.991,7.539 37.991,4.795 L37.991,4.657 C37.991,1.862 39.980,-0.003 42.644,-0.003 C45.291,-0.003 47.280,1.844 47.280,4.605 L47.280,4.745 C47.280,7.558 45.291,9.387 42.627,9.387 ZM16.504,48.557 L7.629,48.557 L7.629,59.993 L-0.013,59.993 L-0.013,15.105 L16.566,15.105 C25.995,15.105 33.083,21.686 33.083,31.524 L33.083,32.016 C33.083,42.037 25.995,48.557 16.504,48.557 ZM25.441,31.646 C25.441,25.006 22.112,20.947 16.566,20.947 L7.629,20.947 L7.629,42.776 L16.566,42.776 C22.112,42.776 25.441,38.656 25.441,32.078 L25.441,31.646 ZM46.456,48.557 L38.814,48.557 L38.814,15.105 L46.456,15.105 L46.456,48.557 Z" class="cls-1"/></svg>